<svg width="60" height="60" viewBox="0 0 60 60" fill="none" xmlns="http://www.w3.org/2000/svg">
<rect x="0.5" y="0.5" width="59" height="59" rx="19.5" fill="white"/>
<rect x="0.5" y="0.5" width="59" height="59" rx="19.5" stroke="#232227"/>
<g clip-path="url(#clip0_853_858)">
<path d="M30 42C32.3734 42 34.6934 41.2962 36.6668 39.9776C38.6402 38.6591 40.1783 36.7849 41.0865 34.5922C41.9948 32.3995 42.2324 29.9867 41.7694 27.6589C41.3064 25.3312 40.1635 23.193 38.4853 21.5147C36.807 19.8365 34.6688 18.6936 32.3411 18.2306C30.0133 17.7676 27.6005 18.0052 25.4078 18.9135C23.2151 19.8217 21.3409 21.3598 20.0224 23.3332C18.7038 25.3066 18 27.6266 18 30C18.0034 33.1815 19.2688 36.2318 21.5185 38.4815C23.7682 40.7312 26.8185 41.9966 30 42V42ZM30 20C31.9778 20 33.9112 20.5865 35.5557 21.6853C37.2002 22.7841 38.4819 24.3459 39.2388 26.1732C39.9957 28.0004 40.1937 30.0111 39.8078 31.9509C39.422 33.8907 38.4696 35.6725 37.0711 37.0711C35.6725 38.4696 33.8907 39.422 31.9509 39.8079C30.0111 40.1937 28.0004 39.9957 26.1732 39.2388C24.3459 38.4819 22.7841 37.2002 21.6853 35.5557C20.5865 33.9112 20 31.9778 20 30C20.0029 27.3487 21.0574 24.8069 22.9321 22.9322C24.8069 21.0574 27.3487 20.0029 30 20V20ZM24.334 33.746C24.1359 33.5696 24.0159 33.3218 24.0006 33.057C23.9852 32.7922 24.0756 32.5321 24.252 32.334C24.4284 32.1359 24.6762 32.0159 24.941 32.0006C25.2058 31.9852 25.4659 32.0756 25.664 32.252C26.8865 33.2813 28.4055 33.8936 30 34C31.5936 33.8937 33.1118 33.2821 34.334 32.254C34.5318 32.0774 34.7918 31.9866 35.0566 32.0016C35.3214 32.0166 35.5694 32.1362 35.746 32.334C35.9226 32.5319 36.0134 32.7918 35.9984 33.0566C35.9834 33.3214 35.8638 33.5694 35.666 33.746C34.0781 35.1025 32.0858 35.8951 30 36C27.9142 35.8951 25.9219 35.1025 24.334 33.746ZM36 28C36 29 35.105 29 34 29C32.895 29 32 29 32 28C32 27.4696 32.2107 26.9609 32.5858 26.5858C32.9609 26.2107 33.4696 26 34 26C34.5304 26 35.0391 26.2107 35.4142 26.5858C35.7893 26.9609 36 27.4696 36 28V28ZM28 28C28 29 27.105 29 26 29C24.895 29 24 29 24 28C24 27.4696 24.2107 26.9609 24.5858 26.5858C24.9609 26.2107 25.4696 26 26 26C26.5304 26 27.0391 26.2107 27.4142 26.5858C27.7893 26.9609 28 27.4696 28 28Z" fill="#374957"/>
</g>
<defs>
<clipPath id="clip0_853_858">
<rect width="24" height="24" fill="white" transform="matrix(-1 0 0 1 42 18)"/>
</clipPath>
</defs>
</svg>
