<svg width="33" height="34" viewBox="0 0 33 34" fill="none" xmlns="http://www.w3.org/2000/svg">
<path d="M21.6922 14.7599C21.5648 14.7252 21.4318 14.7161 21.3009 14.733C21.17 14.75 21.0437 14.7927 20.9294 14.8587C20.8151 14.9247 20.7149 15.0127 20.6348 15.1176C20.5546 15.2225 20.496 15.3422 20.4624 15.4699L19.2582 19.9641L14.2582 11.3039C14.1256 11.0742 13.9071 10.9066 13.651 10.8379C13.3948 10.7693 13.1218 10.8052 12.8922 10.9378C12.6625 11.0704 12.4949 11.2889 12.4262 11.545C12.3576 11.8012 12.3935 12.0742 12.5261 12.3039L17.5261 20.9641L13.0319 19.7599C12.9045 19.7252 12.7715 19.7161 12.6406 19.733C12.5097 19.75 12.3835 19.7927 12.2691 19.8587C12.1548 19.9247 12.0547 20.0127 11.9745 20.1176C11.8944 20.2225 11.8358 20.3422 11.8021 20.4699C11.7345 20.7253 11.7707 20.997 11.9028 21.2258C12.0349 21.4546 12.2522 21.6219 12.5071 21.691L18.3761 23.2562C18.8872 23.3948 19.4324 23.325 19.8922 23.0622C20.3453 22.7949 20.675 22.3598 20.8096 21.8512L22.3885 15.986C22.4579 15.7311 22.4237 15.4591 22.2932 15.2293C22.1627 14.9996 21.9466 14.8308 21.6922 14.7599Z" fill="#7224D5"/>
</svg>
