<svg width="40" height="48" viewBox="0 0 40 48" fill="none" xmlns="http://www.w3.org/2000/svg">
<g clip-path="url(#clip0_902_785)">
<path d="M21.8476 0.515381C28.1537 0.538328 32.5846 1.93882 36.6411 7.14947C38.7241 9.82528 39.859 12.7268 39.9451 16.1145C40.0817 21.4906 38.4182 24.14 34.902 28.0587C33.3068 29.8365 30.978 31.9297 30.3838 34.2714C29.6638 37.1085 30.2485 40.0235 31.6871 42.5255C32.0887 43.2238 33.3806 44.9856 32.3358 45.6841C31.6209 46.162 32.5211 44.3868 31.2957 45.0947C28.8352 46.516 26.2183 46.666 23.441 46.667L20.1718 46.6609C19.6 46.67 15.5633 46.6069 15.3464 46.7043C15.0982 46.8157 15.2622 47.6163 14.7712 47.448C14.5883 47.2356 14.8578 46.3207 14.7978 45.9817C14.7166 45.5222 14.4238 45.1049 14.267 44.6676C13.9386 43.7522 13.9149 42.6579 13.8858 41.6986C12.0267 42.2216 9.69012 42.3656 8.11322 41.0887C4.89962 38.4861 6.82202 34.5545 6.44832 31.4156C4.80592 30.9185 2.48752 31.8967 0.756318 30.2351C-1.27632 28.284 1.54362 25.4431 2.71252 23.8368C4.98332 20.7161 5.25682 18.4545 5.83182 14.669C7.13502 6.08932 12.9725 0.590084 21.8476 0.515381ZM19.9081 1.72822C11.7902 2.04243 7.52162 6.7694 6.71122 14.5675C6.30522 18.474 6.15592 21.4821 3.97672 24.8507C1.99482 27.9145 -0.931182 29.9998 5.04242 30.354C7.75552 30.5148 7.23562 31.9501 7.30782 34.1524C7.43002 37.8752 7.82422 41.1339 12.3126 40.5284C15.5115 40.0969 19.099 37.8091 21.4525 35.585C21.6602 35.3887 22.2473 34.7546 22.4557 34.6351C22.743 34.4705 22.658 34.8229 22.5883 34.9651C21.6689 36.8421 18.6779 39.3741 16.9257 40.339C16.327 40.6725 15.7069 40.9764 15.0635 41.2155C15.4677 42.8835 15.2093 44.6044 15.2446 46.2916C16.9242 45.9938 19.0832 45.6353 20.7347 45.4894C22.1501 45.3643 23.5804 45.3806 24.9975 45.2822C27.1635 45.1318 29.1533 44.7644 31.2584 44.2789C30.8396 43.7011 30.3897 43.1733 30.0246 42.5555C27.1191 37.6381 28.4732 32.2465 31.5546 27.8229C35.4101 22.2881 37.2582 21.0863 36.361 14.1958C35.1573 4.95049 29.185 1.30543 19.9081 1.72822Z" fill="#232227"/>
<path d="M16.5118 4.50971C16.8392 4.47067 16.9144 4.82164 16.7439 5.04764C16.4785 5.3995 15.909 5.68073 15.554 5.96633C13.3681 7.72424 11.857 9.88676 11.7974 12.7936C11.791 13.1052 11.9828 14.2219 11.6991 14.393C11.0358 13.6359 11.2405 10.9733 11.4653 10.0716C12.0624 7.67656 14.1613 5.27135 16.5118 4.50971Z" fill="#232227"/>
<path d="M23.9963 4.92123C30.3697 4.39533 34.3985 11.0276 32.4826 16.8747C31.8773 18.7217 30.7343 20.116 29.5881 21.6483C28.6403 22.9154 28.3802 23.4333 26.9499 24.1593C27.255 25.2033 28.2469 25.1897 27.2981 25.9708C27.1434 26.3818 28.0361 26.5995 26.906 28.7205C26.3677 29.7306 25.3664 30.3442 24.2147 30.4132C22.1302 30.3905 19.6679 29.0152 19.9462 26.6835C19.9781 26.4164 20.0797 26.1638 20.1177 25.8951C18.5548 25.4324 20.2411 25.3272 20.4743 24.8093L20.4928 24.7674C19.5641 23.8702 19.6606 24.2026 19.4285 22.7003C19.1275 20.7526 18.7786 20.1012 17.4581 18.5713C12.2264 12.5098 16.7639 5.23614 23.9963 4.92123Z" fill="#232227"/>
<path d="M21.4648 28.3682C23.0778 28.6597 23.8393 28.4969 25.3041 28.5444L25.3516 28.5461C25.2696 28.6558 25.1749 28.7545 25.0825 28.8554C24.1761 29.6179 22.2456 29.0173 21.4648 28.3682Z" fill="#FDE3C7"/>
<path d="M20.8406 26.4939C21.2481 26.5638 21.6511 26.7411 22.0586 26.8319C23.5948 27.174 24.5599 27.0349 26.0324 26.7894C26.0083 26.9644 25.9927 27.1414 25.9147 27.3022C25.2469 27.7717 22.1077 27.7589 21.2775 27.5298C20.8812 27.4204 20.8193 26.8291 20.8406 26.4939Z" fill="#FDE3C7"/>
<path d="M25.3607 24.6952C25.7311 24.6577 26.188 24.8526 26.1175 25.255C25.9503 26.2086 22.7267 25.8939 22.0425 25.7446C18.82 25.1232 25.0617 24.7257 25.3607 24.6952Z" fill="#FDE3C7"/>
<path d="M24.2644 15.687C25.9191 15.5803 26.8142 17.0004 24.5818 17.5478C21.8687 17.9803 22.7451 15.9853 24.2644 15.687Z" fill="#FDE3C7"/>
<path d="M23.2282 5.9762C26.9791 5.48636 29.5787 7.89335 30.6992 11.2431C31.568 13.8405 30.2244 16.4771 28.7251 18.5528C27.9656 19.6041 26.9067 20.6529 26.4651 21.8909C26.3664 22.1678 26.298 22.4567 26.1648 22.7202C25.7548 22.8635 25.3384 22.926 24.9077 22.9715C24.9426 21.5254 24.9157 20.0735 24.9201 18.6268C28.9441 17.0364 26.1109 14.3724 24.0336 14.7252C23.023 14.9323 21.8432 15.6338 21.6793 16.735C21.448 18.2881 22.5888 18.4787 23.7918 18.6229C23.7792 20.1159 23.7193 21.6025 23.7234 23.0976C23.0529 23.1891 22.3771 23.2537 21.7041 23.3248C21.3035 22.0904 21.1635 20.851 20.5418 19.6735C19.2812 17.2862 16.9245 15.973 16.6678 13.0428C16.322 9.09446 19.4426 6.30849 23.2282 5.9762Z" fill="#FDE3C7"/>
</g>
<defs>
<clipPath id="clip0_902_785">
<rect width="40" height="47" fill="white" transform="translate(0 0.5)"/>
</clipPath>
</defs>
</svg>
